<svg width="1584" height="396" viewBox="0 0 1584 396" fill="none" xmlns="http://www.w3.org/2000/svg">
<rect width="1584" height="396" fill="#F5F5F5"/>
<g id="Awesome banner" clip-path="url(#clip0_0_1)">
<rect width="1584" height="396" fill="url(#paint0_linear_0_1)"/>
<ellipse id="Ellipse 2" cx="323" cy="64" rx="285" ry="288" fill="url(#paint1_linear_0_1)" fill-opacity="0.1"/>
<g id="copyright">
<path d="M75.95 334.52L72.30 334.52L72.30 311.16L77.20 311.16L83.70 330.04Q83.60 329.02 83.50 327.62Q83.41 326.23 83.33 324.79Q83.25 323.35 83.25 322.23L83.25 311.16L86.90 311.16L86.90 334.52L82 334.52L75.57 315.64Q75.63 316.57 75.73 317.88Q75.82 319.19 75.89 320.57Q75.95 321.94 75.95 323.10L75.95 334.52M98.80 334.84Q96.46 334.84 94.67 333.96Q92.88 333.08 91.89 331.53Q90.90 329.98 90.90 327.93Q90.90 325.78 92.13 324.18Q93.36 322.58 95.34 322.17L95.34 322.10Q93.65 321.75 92.61 320.38Q91.57 319 91.57 317.11Q91.57 315.26 92.48 313.85Q93.39 312.44 95.02 311.64Q96.66 310.84 98.80 310.84Q100.94 310.84 102.59 311.64Q104.24 312.44 105.15 313.85Q106.06 315.26 106.06 317.11Q106.06 319 105.01 320.38Q103.95 321.75 102.26 322.10L102.26 322.17Q104.24 322.58 105.47 324.18Q106.70 325.78 106.70 327.93Q106.70 329.98 105.71 331.53Q104.72 333.08 102.93 333.96Q101.14 334.84 98.80 334.84M98.80 320.73Q100.30 320.73 101.23 319.82Q102.16 318.90 102.16 317.46Q102.16 315.99 101.23 315.08Q100.30 314.17 98.80 314.17Q97.30 314.17 96.37 315.08Q95.44 315.99 95.44 317.46Q95.44 318.90 96.37 319.82Q97.30 320.73 98.80 320.73M98.80 331.45Q100.56 331.45 101.68 330.42Q102.80 329.40 102.80 327.74Q102.80 326.04 101.68 325Q100.56 323.96 98.80 323.96Q97.04 323.96 95.92 325Q94.80 326.04 94.80 327.74Q94.80 329.40 95.92 330.42Q97.04 331.45 98.80 331.45M114.35 334.52L110.70 334.52L110.70 311.16L115.60 311.16L122.10 330.04Q122 329.02 121.90 327.62Q121.81 326.23 121.73 324.79Q121.65 323.35 121.65 322.23L121.65 311.16L125.30 311.16L125.30 334.52L120.40 334.52L113.97 315.64Q114.03 316.57 114.13 317.88Q114.22 319.19 114.29 320.57Q114.35 321.94 114.35 323.10" fill="white" fill-opacity="0.9"/>
<path d="M161.48 325.24L151.24 325.24L151.24 322.68L161.48 322.68" fill="white" fill-opacity="0.9"/>
<path d="M195.02 334.84Q191.82 334.84 189.96 333.05Q188.11 331.26 188.11 328.12L188.11 317.56Q188.11 314.42 189.96 312.63Q191.82 310.84 195.02 310.84Q198.15 310.84 200.01 312.65Q201.87 314.46 201.87 317.56L198.99 317.56Q198.99 315.58 197.95 314.50Q196.91 313.43 195.02 313.43Q193.13 313.43 192.06 314.50Q190.99 315.58 190.99 317.56L190.99 328.12Q190.99 330.10 192.06 331.18Q193.13 332.25 195.02 332.25Q196.91 332.25 197.95 331.18Q198.99 330.10 198.99 328.12L201.87 328.12Q201.87 331.22 200.01 333.03Q198.15 334.84 195.02 334.84" fill="white" fill-opacity="0.9"/>
<path d="M213.96 334.84Q210.83 334.84 209 333.02Q207.18 331.19 207.18 327.80L207.18 317.88Q207.18 314.49 209 312.66Q210.83 310.84 213.96 310.84Q217.10 310.84 218.92 312.66Q220.75 314.49 220.75 317.85L220.75 327.80Q220.75 331.19 218.92 333.02Q217.10 334.84 213.96 334.84M213.96 332.25Q215.85 332.25 216.86 331.18Q217.87 330.10 217.87 328.12L217.87 317.56Q217.87 315.58 216.86 314.50Q215.85 313.43 213.96 313.43Q212.11 313.43 211.08 314.50Q210.06 315.58 210.06 317.56L210.06 328.12Q210.06 330.10 211.08 331.18Q212.11 332.25 213.96 332.25" fill="white" fill-opacity="0.9"/>
<path d="M228.65 334.52L225.87 334.52L225.87 311.16L230.12 311.16L233.10 321.27L236.20 311.16L240.46 311.16L240.46 334.52L237.67 334.52L237.67 323.48Q237.67 321.91 237.72 319.88Q237.77 317.85 237.87 315.77Q237.96 313.69 238.09 312.02L234.31 324.09L231.82 324.09L228.20 312.31Q228.46 314.68 228.55 317.50Q228.65 320.31 228.65 323.48" fill="white" fill-opacity="0.9"/>
<path d="M247.85 334.52L245.07 334.52L245.07 311.16L249.32 311.16L252.30 321.27L255.40 311.16L259.66 311.16L259.66 334.52L256.87 334.52L256.87 323.48Q256.87 321.91 256.92 319.88Q256.97 317.85 257.07 315.77Q257.16 313.69 257.29 312.02L253.51 324.09L251.02 324.09L247.40 312.31Q247.66 314.68 247.75 317.50Q247.85 320.31 247.85 323.48" fill="white" fill-opacity="0.9"/>
<path d="M271.56 334.84Q268.30 334.84 266.57 333.03Q264.84 331.22 264.84 328.12L264.84 311.16L267.72 311.16L267.72 328.12Q267.72 330.04 268.67 331.16Q269.61 332.28 271.56 332.28Q273.48 332.28 274.44 331.16Q275.40 330.04 275.40 328.12L275.40 311.16L278.28 311.16L278.28 328.12Q278.28 331.26 276.57 333.05Q274.86 334.84 271.56 334.84" fill="white" fill-opacity="0.9"/>
<path d="M286.83 334.52L284.04 334.52L284.04 311.16L287.88 311.16L295.02 331.16Q294.95 330.36 294.87 329.19Q294.79 328.02 294.75 326.73Q294.70 325.43 294.70 324.28L294.70 311.16L297.48 311.16L297.48 334.52L293.64 334.52L286.54 314.52Q286.60 315.29 286.67 316.46Q286.73 317.62 286.78 318.92Q286.83 320.22 286.83 321.40" fill="white" fill-opacity="0.9"/>
<path d="M316.20 334.52L303.72 334.52L303.72 331.90L308.49 331.90L308.49 313.78L303.72 313.78L303.72 311.16L316.20 311.16L316.20 313.78L311.43 313.78L311.43 331.90L316.20 331.90" fill="white" fill-opacity="0.9"/>
<path d="M330.60 334.52L327.72 334.52L327.72 313.78L321.32 313.78L321.32 311.16L337 311.16L337 313.78L330.60 313.78" fill="white" fill-opacity="0.9"/>
<path d="M349.80 334.52L346.92 334.52L346.92 325.78L339.88 311.16L342.95 311.16L347.50 320.76Q347.88 321.56 348.11 322.12Q348.33 322.68 348.39 322.94Q348.46 322.68 348.70 322.12Q348.94 321.56 349.32 320.76L353.87 311.16L356.84 311.16L349.80 325.78" fill="white" fill-opacity="0.9"/>
<path d="M382.83 334.52L380.04 334.52L380.04 311.16L383.88 311.16L391.02 331.16Q390.95 330.36 390.87 329.19Q390.79 328.02 390.75 326.73Q390.70 325.43 390.70 324.28L390.70 311.16L393.48 311.16L393.48 334.52L389.64 334.52L382.54 314.52Q382.60 315.29 382.67 316.46Q382.73 317.62 382.78 318.92Q382.83 320.22 382.83 321.40" fill="white" fill-opacity="0.9"/>
<path d="M405.96 334.84Q402.83 334.84 401 333.02Q399.18 331.19 399.18 327.80L399.18 317.88Q399.18 314.49 401 312.66Q402.83 310.84 405.96 310.84Q409.10 310.84 410.92 312.66Q412.75 314.49 412.75 317.85L412.75 327.80Q412.75 331.19 410.92 333.02Q409.10 334.84 405.96 334.84M405.96 332.25Q407.85 332.25 408.86 331.18Q409.87 330.10 409.87 328.12L409.87 317.56Q409.87 315.58 408.86 314.50Q407.85 313.43 405.96 313.43Q404.11 313.43 403.08 314.50Q402.06 315.58 402.06 317.56L402.06 328.12Q402.06 330.10 403.08 331.18Q404.11 332.25 405.96 332.25" fill="white" fill-opacity="0.9"/>
<path d="M424.55 334.52L418.51 334.52L418.51 311.16L424.55 311.16Q426.83 311.16 428.47 312.02Q430.12 312.89 431.03 314.46Q431.95 316.02 431.95 318.17L431.95 327.48Q431.95 329.62 431.03 331.21Q430.12 332.79 428.47 333.66Q426.83 334.52 424.55 334.52M421.39 313.72L421.39 331.96L424.55 331.96Q426.67 331.96 427.87 330.78Q429.07 329.59 429.07 327.48L429.07 318.17Q429.07 316.09 427.87 314.90Q426.67 313.72 424.55 313.72" fill="white" fill-opacity="0.9"/>
<path d="M451.40 334.52L437.96 334.52L437.96 311.16L451.40 311.16L451.40 313.78L440.81 313.78L440.81 321.02L450.28 321.02L450.28 323.58L440.81 323.58L440.81 331.90L451.40 331.90" fill="white" fill-opacity="0.9"/>
<path d="M463.69 334.84Q460.30 334.84 458.28 333.05Q456.27 331.26 456.27 328.12L459.15 328.12Q459.15 330.07 460.39 331.18Q461.64 332.28 463.69 332.28Q465.67 332.28 466.86 331.13Q468.04 329.98 468.04 328.12Q468.04 326.71 467.29 325.67Q466.54 324.63 465.13 324.25L461.58 323.26Q459.37 322.62 458.11 320.97Q456.84 319.32 456.84 317.08Q456.84 315.22 457.67 313.82Q458.51 312.41 460.01 311.62Q461.51 310.84 463.47 310.84Q465.45 310.84 466.97 311.62Q468.49 312.41 469.35 313.80Q470.22 315.19 470.22 317.02L467.34 317.02Q467.34 315.42 466.25 314.41Q465.16 313.40 463.47 313.40Q461.77 313.40 460.71 314.41Q459.66 315.42 459.66 317.02Q459.66 318.30 460.35 319.21Q461.03 320.12 462.28 320.47L465.93 321.50Q468.27 322.14 469.56 323.91Q470.86 325.69 470.86 328.12Q470.86 331.19 468.91 333.02Q466.95 334.84 463.69 334.84" fill="white" fill-opacity="0.9"/>
</g>
<path d="M73.82 197.64L71.73 197.64L71.73 180.12L74.92 180.12L77.15 187.70L79.48 180.12L82.67 180.12L82.67 197.64L80.58 197.64L80.58 189.36Q80.58 188.18 80.62 186.66Q80.66 185.14 80.73 183.58Q80.80 182.02 80.90 180.77L78.06 189.82L76.19 189.82L73.48 180.98Q73.67 182.76 73.74 184.87Q73.82 186.98 73.82 189.36" fill="white" fill-opacity="0.7"/>
<path d="M91.96 197.64L86.63 197.64L86.63 180.12L91.60 180.12Q94 180.12 95.36 181.32Q96.71 182.52 96.71 184.66Q96.71 186 95.86 187.08Q95.01 188.16 93.64 188.42L93.64 188.50Q94.67 188.62 95.45 189.22Q96.23 189.82 96.68 190.74Q97.12 191.66 97.12 192.77Q97.12 195.02 95.74 196.33Q94.36 197.64 91.96 197.64M88.74 182.06L88.74 187.58L91.58 187.58Q92.97 187.58 93.77 186.84Q94.58 186.10 94.58 184.82Q94.58 183.55 93.78 182.81Q92.99 182.06 91.60 182.06L88.74 182.06M88.74 189.46L88.74 195.70L91.72 195.70Q93.23 195.70 94.11 194.89Q94.98 194.09 94.98 192.70Q94.98 191.26 94.11 190.36Q93.23 189.46 91.72 189.46" fill="white" fill-opacity="0.7"/>
<path d="M106.10 197.88Q103.55 197.88 102.04 196.54Q100.53 195.19 100.53 192.84L102.69 192.84Q102.69 194.30 103.62 195.13Q104.56 195.96 106.10 195.96Q107.58 195.96 108.47 195.10Q109.36 194.23 109.36 192.84Q109.36 191.78 108.80 191Q108.23 190.22 107.18 189.94L104.51 189.19Q102.86 188.71 101.91 187.48Q100.96 186.24 100.96 184.56Q100.96 183.17 101.58 182.11Q102.21 181.06 103.34 180.47Q104.46 179.88 105.93 179.88Q107.42 179.88 108.56 180.47Q109.70 181.06 110.34 182.10Q110.99 183.14 110.99 184.51L108.83 184.51Q108.83 183.31 108.02 182.56Q107.20 181.80 105.93 181.80Q104.66 181.80 103.86 182.56Q103.07 183.31 103.07 184.51Q103.07 185.47 103.59 186.16Q104.10 186.84 105.04 187.10L107.78 187.87Q109.53 188.35 110.50 189.68Q111.47 191.02 111.47 192.84Q111.47 195.14 110.01 196.51Q108.54 197.88 106.10 197.88" fill="white" fill-opacity="0.7"/>
<path d="M125.68 197.64L115.60 197.64L115.60 180.12L125.68 180.12L125.68 182.09L117.74 182.09L117.74 187.51L124.84 187.51L124.84 189.43L117.74 189.43L117.74 195.67L125.68 195.67" fill="white" fill-opacity="0.7"/>
<path d="M154.65 197.64L144.06 197.64L144.06 195.65L149.90 189.41Q151.17 188.06 151.70 187.01Q152.22 185.95 152.22 184.94Q152.22 183.50 151.40 182.65Q150.57 181.80 149.15 181.80Q147.69 181.80 146.84 182.68Q145.98 183.55 145.98 185.04L143.82 185.04Q143.90 182.66 145.34 181.27Q146.78 179.88 149.15 179.88Q151.58 179.88 153 181.25Q154.43 182.62 154.43 184.97Q154.43 186.22 153.75 187.61Q153.06 189 151.41 190.73L146.68 195.67L154.65 195.67" fill="white" fill-opacity="0.7"/>
<path d="M163.60 197.88Q161.18 197.88 159.75 196.48Q158.32 195.07 158.32 192.72L158.32 185.04Q158.32 182.69 159.75 181.28Q161.18 179.88 163.60 179.88Q166.02 179.88 167.45 181.28Q168.88 182.69 168.88 185.04L168.88 192.72Q168.88 194.28 168.23 195.44Q167.58 196.61 166.40 197.24Q165.21 197.88 163.60 197.88M163.60 196.03Q165.04 196.03 165.92 195.11Q166.79 194.18 166.79 192.72L166.79 185.04Q166.79 183.58 165.92 182.65Q165.04 181.73 163.60 181.73Q162.16 181.73 161.28 182.65Q160.41 183.58 160.41 185.04L160.41 192.72Q160.41 194.18 161.28 195.11Q162.16 196.03 163.60 196.03M163.60 190.20Q162.95 190.20 162.56 189.84Q162.16 189.48 162.16 188.81Q162.16 188.16 162.56 187.81Q162.95 187.46 163.60 187.46Q164.25 187.46 164.64 187.81Q165.04 188.16 165.04 188.81Q165.04 189.48 164.64 189.84Q164.25 190.20 163.60 190.20" fill="white" fill-opacity="0.7"/>
<path d="M183.76 197.64L172.96 197.64L172.96 195.67L177.71 195.67L177.71 181.99L172.96 185.54L172.96 183.07L176.92 180.12L179.87 180.12L179.87 195.67L183.76 195.67" fill="white" fill-opacity="0.7"/>
<path d="M192.40 197.88Q190.74 197.88 189.47 197.23Q188.20 196.58 187.49 195.42Q186.78 194.26 186.78 192.74Q186.78 191.09 187.73 189.89Q188.68 188.69 190.26 188.42L190.26 188.35Q188.90 188.04 188.08 186.97Q187.26 185.90 187.26 184.51Q187.26 183.14 187.91 182.10Q188.56 181.06 189.72 180.47Q190.89 179.88 192.40 179.88Q193.94 179.88 195.09 180.47Q196.24 181.06 196.89 182.10Q197.54 183.14 197.54 184.51Q197.54 185.90 196.72 186.97Q195.90 188.04 194.54 188.35L194.54 188.42Q196.12 188.69 197.07 189.89Q198.02 191.09 198.02 192.74Q198.02 194.26 197.31 195.42Q196.60 196.58 195.34 197.23Q194.08 197.88 192.40 197.88M192.40 187.51Q193.74 187.51 194.56 186.72Q195.38 185.93 195.38 184.66Q195.38 183.38 194.56 182.59Q193.74 181.80 192.40 181.80Q191.08 181.80 190.25 182.59Q189.42 183.38 189.42 184.66Q189.42 185.93 190.25 186.72Q191.08 187.51 192.40 187.51M192.40 195.94Q193.94 195.94 194.90 195.04Q195.86 194.14 195.86 192.70Q195.86 191.23 194.90 190.33Q193.94 189.43 192.40 189.43Q190.86 189.43 189.90 190.33Q188.94 191.23 188.94 192.70Q188.94 194.14 189.90 195.04Q190.86 195.94 192.40 195.94" fill="white" fill-opacity="0.7"/>
<path d="M221.39 197.88Q218.99 197.88 217.60 196.54Q216.21 195.19 216.21 192.84L216.21 184.92Q216.21 182.57 217.60 181.22Q218.99 179.88 221.39 179.88Q223.74 179.88 225.14 181.24Q226.53 182.59 226.53 184.92L224.37 184.92Q224.37 183.43 223.59 182.63Q222.81 181.82 221.39 181.82Q219.98 181.82 219.17 182.63Q218.37 183.43 218.37 184.92L218.37 192.84Q218.37 194.33 219.17 195.13Q219.98 195.94 221.39 195.94Q222.81 195.94 223.59 195.13Q224.37 194.33 224.37 192.84L226.53 192.84Q226.53 195.17 225.14 196.52Q223.74 197.88 221.39 197.88" fill="white" fill-opacity="0.7"/>
<path d="M241.60 197.64L237.52 197.64Q235.77 197.64 234.72 196.62Q233.68 195.60 233.68 193.92L233.68 182.09L229.12 182.09L229.12 180.12L235.84 180.12L235.84 193.92Q235.84 194.74 236.30 195.20Q236.75 195.67 237.52 195.67L241.60 195.67" fill="white" fill-opacity="0.7"/>
<path d="M248.85 197.88Q246.81 197.88 245.61 196.74Q244.41 195.60 244.41 193.75Q244.41 192.53 244.96 191.62Q245.51 190.70 246.50 190.19Q247.48 189.67 248.75 189.67L252.83 189.67L252.83 188.64Q252.83 186.07 250.02 186.07Q248.78 186.07 248.01 186.53Q247.24 186.98 247.19 187.80L245.03 187.80Q245.15 186.24 246.48 185.22Q247.82 184.20 250.02 184.20Q252.42 184.20 253.71 185.35Q254.99 186.50 254.99 188.57L254.99 197.64L252.86 197.64L252.86 195.24L252.81 195.24Q252.62 196.46 251.58 197.17Q250.55 197.88 248.85 197.88M249.38 196.06Q250.96 196.06 251.90 195.29Q252.83 194.52 252.83 193.20L252.83 191.35L248.99 191.35Q247.94 191.35 247.28 191.99Q246.62 192.62 246.62 193.68Q246.62 194.78 247.35 195.42Q248.08 196.06 249.38 196.06" fill="white" fill-opacity="0.7"/>
<path d="M264.93 197.83L263.87 197.83Q261.66 197.83 260.45 196.84Q259.24 195.84 259.24 194.02L261.40 194.02Q261.40 194.93 262.05 195.44Q262.70 195.96 263.87 195.96L264.93 195.96Q266.13 195.96 266.79 195.43Q267.45 194.90 267.45 193.94Q267.45 192.24 265.89 192.02L262.24 191.50Q260.90 191.30 260.15 190.38Q259.41 189.46 259.41 187.94Q259.41 186.22 260.60 185.23Q261.78 184.25 263.87 184.25L264.93 184.25Q266.85 184.25 268.06 185.20Q269.27 186.14 269.37 187.68L267.18 187.68Q267.14 186.98 266.52 186.53Q265.91 186.07 264.93 186.07L263.87 186.07Q262.77 186.07 262.14 186.58Q261.52 187.08 261.52 187.94Q261.52 189.34 262.79 189.53L266.20 190.01Q269.56 190.49 269.56 193.94Q269.56 195.79 268.35 196.81Q267.14 197.83 264.93 197.83" fill="white" fill-opacity="0.7"/>
<path d="M279.33 197.83L278.27 197.83Q276.06 197.83 274.85 196.84Q273.64 195.84 273.64 194.02L275.80 194.02Q275.80 194.93 276.45 195.44Q277.10 195.96 278.27 195.96L279.33 195.96Q280.53 195.96 281.19 195.43Q281.85 194.90 281.85 193.94Q281.85 192.24 280.29 192.02L276.64 191.50Q275.30 191.30 274.55 190.38Q273.81 189.46 273.81 187.94Q273.81 186.22 275 185.23Q276.18 184.25 278.27 184.25L279.33 184.25Q281.25 184.25 282.46 185.20Q283.67 186.14 283.77 187.68L281.58 187.68Q281.54 186.98 280.92 186.53Q280.31 186.07 279.33 186.07L278.27 186.07Q277.17 186.07 276.54 186.58Q275.92 187.08 275.92 187.94Q275.92 189.34 277.19 189.53L280.60 190.01Q283.96 190.49 283.96 193.94Q283.96 195.79 282.75 196.81Q281.54 197.83 279.33 197.83" fill="white" fill-opacity="0.7"/>
<path d="M303.76 197.64L301.36 197.64L306.40 188.76L301.62 180.12L304.12 180.12L306.83 185.30Q307.05 185.71 307.28 186.18Q307.50 186.65 307.65 186.91Q307.77 186.65 308 186.18Q308.22 185.71 308.44 185.30L311.20 180.12L313.58 180.12L308.80 188.62L313.84 197.64L311.37 197.64L308.37 192.07Q308.15 191.66 307.92 191.20Q307.70 190.73 307.58 190.44Q307.46 190.73 307.23 191.18Q307 191.64 306.78 192.05" fill="white" fill-opacity="0.7"/>
<path d="M318.88 200.28L316.60 200.28L325.12 177.72L327.40 177.72" fill="white" fill-opacity="0.7"/>
<path d="M332.56 197.64L330.16 197.64L335.20 188.76L330.42 180.12L332.92 180.12L335.63 185.30Q335.85 185.71 336.08 186.18Q336.30 186.65 336.45 186.91Q336.57 186.65 336.80 186.18Q337.02 185.71 337.24 185.30L340 180.12L342.38 180.12L337.60 188.62L342.64 197.64L340.17 197.64L337.17 192.07Q336.95 191.66 336.72 191.20Q336.50 190.73 336.38 190.44Q336.26 190.73 336.03 191.18Q335.80 191.64 335.58 192.05" fill="white" fill-opacity="0.7"/>
<path d="M355.48 197.64L346.12 197.64L346.12 195.67L349.70 195.67L349.70 182.09L346.12 182.09L346.12 180.12L355.48 180.12L355.48 182.09L351.90 182.09L351.90 195.67L355.48 195.67" fill="white" fill-opacity="0.7"/>
<path d="M369.88 197.64L360.52 197.64L360.52 195.67L364.10 195.67L364.10 182.09L360.52 182.09L360.52 180.12L369.88 180.12L369.88 182.09L366.30 182.09L366.30 195.67L369.88 195.67" fill="white" fill-opacity="0.7"/>
<path d="M390.26 197.64L388.24 197.64L388.24 184.44L390.11 184.44L390.11 186.19L390.16 186.19Q390.28 185.30 390.87 184.75Q391.46 184.20 392.37 184.20Q393.23 184.20 393.83 184.70Q394.43 185.21 394.70 186.07L394.72 186.07Q394.89 185.21 395.48 184.70Q396.06 184.20 396.98 184.20Q398.25 184.20 399 185.15Q399.76 186.10 399.76 187.61L399.76 197.64L397.74 197.64L397.74 187.58Q397.74 186.79 397.36 186.32Q396.98 185.86 396.30 185.86Q395.66 185.86 395.27 186.31Q394.89 186.77 394.89 187.56L394.89 197.64L393.11 197.64L393.11 187.58Q393.11 186.79 392.73 186.32Q392.34 185.86 391.70 185.86Q391.02 185.86 390.64 186.31Q390.26 186.77 390.26 187.56" fill="white" fill-opacity="0.7"/>
<path d="M407.25 197.88Q405.21 197.88 404.01 196.74Q402.81 195.60 402.81 193.75Q402.81 192.53 403.36 191.62Q403.91 190.70 404.90 190.19Q405.88 189.67 407.15 189.67L411.23 189.67L411.23 188.64Q411.23 186.07 408.42 186.07Q407.18 186.07 406.41 186.53Q405.64 186.98 405.59 187.80L403.43 187.80Q403.55 186.24 404.88 185.22Q406.22 184.20 408.42 184.20Q410.82 184.20 412.11 185.35Q413.39 186.50 413.39 188.57L413.39 197.64L411.26 197.64L411.26 195.24L411.21 195.24Q411.02 196.46 409.98 197.17Q408.95 197.88 407.25 197.88M407.78 196.06Q409.36 196.06 410.30 195.29Q411.23 194.52 411.23 193.20L411.23 191.35L407.39 191.35Q406.34 191.35 405.68 191.99Q405.02 192.62 405.02 193.68Q405.02 194.78 405.75 195.42Q406.48 196.06 407.78 196.06" fill="white" fill-opacity="0.7"/>
<path d="M420.45 197.64L418.29 197.64L418.29 184.44L420.45 184.44L420.45 186.96L420.50 186.96Q420.66 185.69 421.58 184.94Q422.49 184.20 424.02 184.20Q426.09 184.20 427.20 185.44Q428.32 186.67 428.32 188.95L428.32 190.08L426.16 190.08L426.16 188.95Q426.16 186.07 423.35 186.07Q421.94 186.07 421.19 186.89Q420.45 187.70 420.45 189.24" fill="white" fill-opacity="0.7"/>
<path d="M434.49 197.64L432.33 197.64L432.33 180.12L434.49 180.12L434.49 189.89L437.01 189.89L440.70 184.44L443.18 184.44L438.93 190.73L443.42 197.64L440.90 197.64L437.06 191.76L434.49 191.76" fill="white" fill-opacity="0.7"/>
<path d="M452.13 197.83L451.07 197.83Q448.86 197.83 447.65 196.84Q446.44 195.84 446.44 194.02L448.60 194.02Q448.60 194.93 449.25 195.44Q449.90 195.96 451.07 195.96L452.13 195.96Q453.33 195.96 453.99 195.43Q454.65 194.90 454.65 193.94Q454.65 192.24 453.09 192.02L449.44 191.50Q448.10 191.30 447.35 190.38Q446.61 189.46 446.61 187.94Q446.61 186.22 447.80 185.23Q448.98 184.25 451.07 184.25L452.13 184.25Q454.05 184.25 455.26 185.20Q456.47 186.14 456.57 187.68L454.38 187.68Q454.34 186.98 453.72 186.53Q453.11 186.07 452.13 186.07L451.07 186.07Q449.97 186.07 449.34 186.58Q448.72 187.08 448.72 187.94Q448.72 189.34 449.99 189.53L453.40 190.01Q456.76 190.49 456.76 193.94Q456.76 195.79 455.55 196.81Q454.34 197.83 452.13 197.83" fill="white" fill-opacity="0.7"/>
<path d="M463.17 197.64L461.01 197.64L461.01 180.12L463.17 180.12L463.17 186.96L463.19 186.96Q463.36 185.64 464.27 184.92Q465.18 184.20 466.70 184.20Q468.69 184.20 469.86 185.42Q471.04 186.65 471.04 188.76L471.04 197.64L468.88 197.64L468.88 189.12Q468.88 187.63 468.12 186.83Q467.37 186.02 466.07 186.02Q464.73 186.02 463.95 186.86Q463.17 187.70 463.17 189.24" fill="white" fill-opacity="0.7"/>
<path d="M480.40 197.88Q478.07 197.88 476.64 196.48Q475.22 195.07 475.22 192.60L475.22 189.48Q475.22 187.01 476.64 185.60Q478.07 184.20 480.40 184.20Q481.96 184.20 483.12 184.82Q484.29 185.45 484.94 186.58Q485.58 187.70 485.58 189.24L485.58 191.59L477.33 191.59L477.33 192.84Q477.33 194.30 478.17 195.16Q479.01 196.01 480.40 196.01Q481.60 196.01 482.38 195.54Q483.16 195.07 483.33 194.28L485.49 194.28Q485.27 195.94 483.88 196.91Q482.49 197.88 480.40 197.88M477.33 189.24L477.33 189.91L483.47 189.91L483.47 189.24Q483.47 187.68 482.67 186.83Q481.86 185.98 480.40 185.98Q478.94 185.98 478.13 186.83Q477.33 187.68 477.33 189.24" fill="white" fill-opacity="0.7"/>
<path d="M494.80 197.88Q492.47 197.88 491.04 196.48Q489.62 195.07 489.62 192.60L489.62 189.48Q489.62 187.01 491.04 185.60Q492.47 184.20 494.80 184.20Q496.36 184.20 497.52 184.82Q498.69 185.45 499.34 186.58Q499.98 187.70 499.98 189.24L499.98 191.59L491.73 191.59L491.73 192.84Q491.73 194.30 492.57 195.16Q493.41 196.01 494.80 196.01Q496 196.01 496.78 195.54Q497.56 195.07 497.73 194.28L499.89 194.28Q499.67 195.94 498.28 196.91Q496.89 197.88 494.80 197.88M491.73 189.24L491.73 189.91L497.87 189.91L497.87 189.24Q497.87 187.68 497.07 186.83Q496.26 185.98 494.80 185.98Q493.34 185.98 492.53 186.83Q491.73 187.68 491.73 189.24" fill="white" fill-opacity="0.7"/>
<path d="M514.36 197.64L510.52 197.64Q508.89 197.64 507.90 196.69Q506.92 195.74 506.92 194.16L506.92 186.41L503.13 186.41L503.13 184.44L506.92 184.44L506.92 180.72L509.08 180.72L509.08 184.44L514.48 184.44L514.48 186.41L509.08 186.41L509.08 194.16Q509.08 194.83 509.48 195.25Q509.87 195.67 510.52 195.67L514.36 195.67" fill="white" fill-opacity="0.7"/>
<path d="M524.13 197.83L523.07 197.83Q520.86 197.83 519.65 196.84Q518.44 195.84 518.44 194.02L520.60 194.02Q520.60 194.93 521.25 195.44Q521.90 195.96 523.07 195.96L524.13 195.96Q525.33 195.96 525.99 195.43Q526.65 194.90 526.65 193.94Q526.65 192.24 525.09 192.02L521.44 191.50Q520.10 191.30 519.35 190.38Q518.61 189.46 518.61 187.94Q518.61 186.22 519.80 185.23Q520.98 184.25 523.07 184.25L524.13 184.25Q526.05 184.25 527.26 185.20Q528.47 186.14 528.57 187.68L526.38 187.68Q526.34 186.98 525.72 186.53Q525.11 186.07 524.13 186.07L523.07 186.07Q521.97 186.07 521.34 186.58Q520.72 187.08 520.72 187.94Q520.72 189.34 521.99 189.53L525.40 190.01Q528.76 190.49 528.76 193.94Q528.76 195.79 527.55 196.81Q526.34 197.83 524.13 197.83" fill="white" fill-opacity="0.7"/>
<path d="M538.07 201.48L535.84 201.48L537.16 194.14L539.75 194.14" fill="white" fill-opacity="0.7"/>
<path d="M566.99 197.88Q564.59 197.88 563.15 196.54Q561.71 195.19 561.71 192.84L561.71 189.24Q561.71 186.89 563.15 185.54Q564.59 184.20 566.99 184.20Q569.27 184.20 570.68 185.42Q572.08 186.65 572.15 188.76L569.99 188.76Q569.92 187.49 569.13 186.80Q568.34 186.12 566.99 186.12Q565.58 186.12 564.72 186.92Q563.87 187.73 563.87 189.22L563.87 192.84Q563.87 194.33 564.72 195.14Q565.58 195.96 566.99 195.96Q568.34 195.96 569.13 195.26Q569.92 194.57 569.99 193.32L572.15 193.32Q572.08 195.43 570.68 196.66Q569.27 197.88 566.99 197.88" fill="white" fill-opacity="0.7"/>
<path d="M581.20 197.88Q578.87 197.88 577.44 196.48Q576.02 195.07 576.02 192.60L576.02 189.48Q576.02 187.01 577.44 185.60Q578.87 184.20 581.20 184.20Q582.76 184.20 583.92 184.82Q585.09 185.45 585.74 186.58Q586.38 187.70 586.38 189.24L586.38 191.59L578.13 191.59L578.13 192.84Q578.13 194.30 578.97 195.16Q579.81 196.01 581.20 196.01Q582.40 196.01 583.18 195.54Q583.96 195.07 584.13 194.28L586.29 194.28Q586.07 195.94 584.68 196.91Q583.29 197.88 581.20 197.88M578.13 189.24L578.13 189.91L584.27 189.91L584.27 189.24Q584.27 187.68 583.47 186.83Q582.66 185.98 581.20 185.98Q579.74 185.98 578.93 186.83Q578.13 187.68 578.13 189.24" fill="white" fill-opacity="0.7"/>
<path d="M593.25 197.64L591.09 197.64L591.09 184.44L593.25 184.44L593.25 186.96L593.30 186.96Q593.46 185.69 594.38 184.94Q595.29 184.20 596.82 184.20Q598.89 184.20 600 185.44Q601.12 186.67 601.12 188.95L601.12 190.08L598.96 190.08L598.96 188.95Q598.96 186.07 596.15 186.07Q594.74 186.07 593.99 186.89Q593.25 187.70 593.25 189.24" fill="white" fill-opacity="0.7"/>
<path d="M615.16 197.64L611.32 197.64Q609.69 197.64 608.70 196.69Q607.72 195.74 607.72 194.16L607.72 186.41L603.93 186.41L603.93 184.44L607.72 184.44L607.72 180.72L609.88 180.72L609.88 184.44L615.28 184.44L615.28 186.41L609.88 186.41L609.88 194.16Q609.88 194.83 610.28 195.25Q610.67 195.67 611.32 195.67L615.16 195.67" fill="white" fill-opacity="0.7"/>
<path d="M630.52 197.64L619.24 197.64L619.24 195.67L623.92 195.67L623.92 186.41L619.72 186.41L619.72 184.44L626.08 184.44L626.08 195.67L630.52 195.67L630.52 197.64M624.76 182.06Q623.97 182.06 623.51 181.66Q623.06 181.25 623.06 180.55Q623.06 179.83 623.51 179.41Q623.97 178.99 624.76 178.99Q625.55 178.99 626.01 179.41Q626.46 179.83 626.46 180.55Q626.46 181.25 626.01 181.66Q625.55 182.06 624.76 182.06" fill="white" fill-opacity="0.7"/>
<path d="M638.92 197.64L636.76 197.64L636.76 188.21L632.92 188.21L632.92 186.24L636.76 186.24L636.76 183.48Q636.76 181.92 637.74 181.02Q638.73 180.12 640.46 180.12L644.32 180.12L644.32 182.09L640.46 182.09Q638.92 182.09 638.92 183.48L638.92 186.24L644.32 186.24L644.32 188.21L638.92 188.21" fill="white" fill-opacity="0.7"/>
<path d="M659.32 197.64L648.04 197.64L648.04 195.67L652.72 195.67L652.72 186.41L648.52 186.41L648.52 184.44L654.88 184.44L654.88 195.67L659.32 195.67L659.32 197.64M653.56 182.06Q652.77 182.06 652.31 181.66Q651.86 181.25 651.86 180.55Q651.86 179.83 652.31 179.41Q652.77 178.99 653.56 178.99Q654.35 178.99 654.81 179.41Q655.26 179.83 655.26 180.55Q655.26 181.25 654.81 181.66Q654.35 182.06 653.56 182.06" fill="white" fill-opacity="0.7"/>
<path d="M667.79 197.88Q665.39 197.88 663.95 196.54Q662.51 195.19 662.51 192.84L662.51 189.24Q662.51 186.89 663.95 185.54Q665.39 184.20 667.79 184.20Q670.07 184.20 671.48 185.42Q672.88 186.65 672.95 188.76L670.79 188.76Q670.72 187.49 669.93 186.80Q669.14 186.12 667.79 186.12Q666.38 186.12 665.52 186.92Q664.67 187.73 664.67 189.22L664.67 192.84Q664.67 194.33 665.52 195.14Q666.38 195.96 667.79 195.96Q669.14 195.96 669.93 195.26Q670.72 194.57 670.79 193.32L672.95 193.32Q672.88 195.43 671.48 196.66Q670.07 197.88 667.79 197.88" fill="white" fill-opacity="0.7"/>
<path d="M680.85 197.88Q678.81 197.88 677.61 196.74Q676.41 195.60 676.41 193.75Q676.41 192.53 676.96 191.62Q677.51 190.70 678.50 190.19Q679.48 189.67 680.75 189.67L684.83 189.67L684.83 188.64Q684.83 186.07 682.02 186.07Q680.78 186.07 680.01 186.53Q679.24 186.98 679.19 187.80L677.03 187.80Q677.15 186.24 678.48 185.22Q679.82 184.20 682.02 184.20Q684.42 184.20 685.71 185.35Q686.99 186.50 686.99 188.57L686.99 197.64L684.86 197.64L684.86 195.24L684.81 195.24Q684.62 196.46 683.58 197.17Q682.55 197.88 680.85 197.88M681.38 196.06Q682.96 196.06 683.90 195.29Q684.83 194.52 684.83 193.20L684.83 191.35L680.99 191.35Q679.94 191.35 679.28 191.99Q678.62 192.62 678.62 193.68Q678.62 194.78 679.35 195.42Q680.08 196.06 681.38 196.06" fill="white" fill-opacity="0.7"/>
<path d="M701.56 197.64L697.72 197.64Q696.09 197.64 695.10 196.69Q694.12 195.74 694.12 194.16L694.12 186.41L690.33 186.41L690.33 184.44L694.12 184.44L694.12 180.72L696.28 180.72L696.28 184.44L701.68 184.44L701.68 186.41L696.28 186.41L696.28 194.16Q696.28 194.83 696.68 195.25Q697.07 195.67 697.72 195.67L701.56 195.67" fill="white" fill-opacity="0.7"/>
<path d="M710.80 197.88Q708.47 197.88 707.04 196.48Q705.62 195.07 705.62 192.60L705.62 189.48Q705.62 187.01 707.04 185.60Q708.47 184.20 710.80 184.20Q712.36 184.20 713.52 184.82Q714.69 185.45 715.34 186.58Q715.98 187.70 715.98 189.24L715.98 191.59L707.73 191.59L707.73 192.84Q707.73 194.30 708.57 195.16Q709.41 196.01 710.80 196.01Q712 196.01 712.78 195.54Q713.56 195.07 713.73 194.28L715.89 194.28Q715.67 195.94 714.28 196.91Q712.89 197.88 710.80 197.88M707.73 189.24L707.73 189.91L713.87 189.91L713.87 189.24Q713.87 187.68 713.07 186.83Q712.26 185.98 710.80 185.98Q709.34 185.98 708.53 186.83Q707.73 187.68 707.73 189.24" fill="white" fill-opacity="0.7"/>
<path d="M725.73 197.83L724.67 197.83Q722.46 197.83 721.25 196.84Q720.04 195.84 720.04 194.02L722.20 194.02Q722.20 194.93 722.85 195.44Q723.50 195.96 724.67 195.96L725.73 195.96Q726.93 195.96 727.59 195.43Q728.25 194.90 728.25 193.94Q728.25 192.24 726.69 192.02L723.04 191.50Q721.70 191.30 720.95 190.38Q720.21 189.46 720.21 187.94Q720.21 186.22 721.40 185.23Q722.58 184.25 724.67 184.25L725.73 184.25Q727.65 184.25 728.86 185.20Q730.07 186.14 730.17 187.68L727.98 187.68Q727.94 186.98 727.32 186.53Q726.71 186.07 725.73 186.07L724.67 186.07Q723.57 186.07 722.94 186.58Q722.32 187.08 722.32 187.94Q722.32 189.34 723.59 189.53L727 190.01Q730.36 190.49 730.36 193.94Q730.36 195.79 729.15 196.81Q727.94 197.83 725.73 197.83" fill="white" fill-opacity="0.7"/>
<path d="M752.85 197.88Q750.81 197.88 749.61 196.74Q748.41 195.60 748.41 193.75Q748.41 192.53 748.96 191.62Q749.51 190.70 750.50 190.19Q751.48 189.67 752.75 189.67L756.83 189.67L756.83 188.64Q756.83 186.07 754.02 186.07Q752.78 186.07 752.01 186.53Q751.24 186.98 751.19 187.80L749.03 187.80Q749.15 186.24 750.48 185.22Q751.82 184.20 754.02 184.20Q756.42 184.20 757.71 185.35Q758.99 186.50 758.99 188.57L758.99 197.64L756.86 197.64L756.86 195.24L756.81 195.24Q756.62 196.46 755.58 197.17Q754.55 197.88 752.85 197.88M753.38 196.06Q754.96 196.06 755.90 195.29Q756.83 194.52 756.83 193.20L756.83 191.35L752.99 191.35Q751.94 191.35 751.28 191.99Q750.62 192.62 750.62 193.68Q750.62 194.78 751.35 195.42Q752.08 196.06 753.38 196.06" fill="white" fill-opacity="0.7"/>
<path d="M769.82 197.64L766.98 197.64L762.50 184.44L764.82 184.44L767.70 193.32Q767.97 194.11 768.16 194.84Q768.35 195.58 768.45 195.98Q768.57 195.58 768.74 194.84Q768.90 194.11 769.14 193.32L772.02 184.44L774.30 184.44" fill="white" fill-opacity="0.7"/>
<path d="M781.65 197.88Q779.61 197.88 778.41 196.74Q777.21 195.60 777.21 193.75Q777.21 192.53 777.76 191.62Q778.31 190.70 779.30 190.19Q780.28 189.67 781.55 189.67L785.63 189.67L785.63 188.64Q785.63 186.07 782.82 186.07Q781.58 186.07 780.81 186.53Q780.04 186.98 779.99 187.80L777.83 187.80Q777.95 186.24 779.28 185.22Q780.62 184.20 782.82 184.20Q785.22 184.20 786.51 185.35Q787.79 186.50 787.79 188.57L787.79 197.64L785.66 197.64L785.66 195.24L785.61 195.24Q785.42 196.46 784.38 197.17Q783.35 197.88 781.65 197.88M782.18 196.06Q783.76 196.06 784.70 195.29Q785.63 194.52 785.63 193.20L785.63 191.35L781.79 191.35Q780.74 191.35 780.08 191.99Q779.42 192.62 779.42 193.68Q779.42 194.78 780.15 195.42Q780.88 196.06 782.18 196.06" fill="white" fill-opacity="0.7"/>
<path d="M803.32 197.64L792.04 197.64L792.04 195.67L796.72 195.67L796.72 186.41L792.52 186.41L792.52 184.44L798.88 184.44L798.88 195.67L803.32 195.67L803.32 197.64M797.56 182.06Q796.77 182.06 796.31 181.66Q795.86 181.25 795.86 180.55Q795.86 179.83 796.31 179.41Q796.77 178.99 797.56 178.99Q798.35 178.99 798.81 179.41Q799.26 179.83 799.26 180.55Q799.26 181.25 798.81 181.66Q798.35 182.06 797.56 182.06" fill="white" fill-opacity="0.7"/>
<path d="M817.60 197.64L813.52 197.64Q811.77 197.64 810.72 196.62Q809.68 195.60 809.68 193.92L809.68 182.09L805.12 182.09L805.12 180.12L811.84 180.12L811.84 193.92Q811.84 194.74 812.30 195.20Q812.75 195.67 813.52 195.67L817.60 195.67" fill="white" fill-opacity="0.7"/>
<path d="M824.85 197.88Q822.81 197.88 821.61 196.74Q820.41 195.60 820.41 193.75Q820.41 192.53 820.96 191.62Q821.51 190.70 822.50 190.19Q823.48 189.67 824.75 189.67L828.83 189.67L828.83 188.64Q828.83 186.07 826.02 186.07Q824.78 186.07 824.01 186.53Q823.24 186.98 823.19 187.80L821.03 187.80Q821.15 186.24 822.48 185.22Q823.82 184.20 826.02 184.20Q828.42 184.20 829.71 185.35Q830.99 186.50 830.99 188.57L830.99 197.64L828.86 197.64L828.86 195.24L828.81 195.24Q828.62 196.46 827.58 197.17Q826.55 197.88 824.85 197.88M825.38 196.06Q826.96 196.06 827.90 195.29Q828.83 194.52 828.83 193.20L828.83 191.35L824.99 191.35Q823.94 191.35 823.28 191.99Q822.62 192.62 822.62 193.68Q822.62 194.78 823.35 195.42Q824.08 196.06 825.38 196.06" fill="white" fill-opacity="0.7"/>
<path d="M841.17 197.88Q839.68 197.88 838.72 197.15Q837.76 196.42 837.59 195.12L837.57 195.12L837.57 197.64L835.41 197.64L835.41 180.12L837.57 180.12L837.57 183.96L837.52 186.96L837.54 186.96Q837.74 185.69 838.71 184.94Q839.68 184.20 841.17 184.20Q843.16 184.20 844.34 185.52Q845.51 186.84 845.51 189.12L845.51 192.98Q845.51 195.24 844.34 196.56Q843.16 197.88 841.17 197.88M840.45 196.01Q841.82 196.01 842.58 195.29Q843.35 194.57 843.35 192.96L843.35 189.12Q843.35 187.49 842.58 186.78Q841.82 186.07 840.45 186.07Q839.13 186.07 838.35 186.91Q837.57 187.75 837.57 189.24L837.57 192.84Q837.57 194.33 838.35 195.17Q839.13 196.01 840.45 196.01" fill="white" fill-opacity="0.7"/>
<path d="M860.80 197.64L856.72 197.64Q854.97 197.64 853.92 196.62Q852.88 195.60 852.88 193.92L852.88 182.09L848.32 182.09L848.32 180.12L855.04 180.12L855.04 193.92Q855.04 194.74 855.50 195.20Q855.95 195.67 856.72 195.67L860.80 195.67" fill="white" fill-opacity="0.7"/>
<path d="M869.20 197.88Q866.87 197.88 865.44 196.48Q864.02 195.07 864.02 192.60L864.02 189.48Q864.02 187.01 865.44 185.60Q866.87 184.20 869.20 184.20Q870.76 184.20 871.92 184.82Q873.09 185.45 873.74 186.58Q874.38 187.70 874.38 189.24L874.38 191.59L866.13 191.59L866.13 192.84Q866.13 194.30 866.97 195.16Q867.81 196.01 869.20 196.01Q870.40 196.01 871.18 195.54Q871.96 195.07 872.13 194.28L874.29 194.28Q874.07 195.94 872.68 196.91Q871.29 197.88 869.20 197.88M866.13 189.24L866.13 189.91L872.27 189.91L872.27 189.24Q872.27 187.68 871.47 186.83Q870.66 185.98 869.20 185.98Q867.74 185.98 866.93 186.83Q866.13 187.68 866.13 189.24" fill="white" fill-opacity="0.7"/>
<path d="M904.12 197.64L892.84 197.64L892.84 195.67L897.52 195.67L897.52 186.41L893.32 186.41L893.32 184.44L899.68 184.44L899.68 195.67L904.12 195.67L904.12 197.64M898.36 182.06Q897.57 182.06 897.11 181.66Q896.66 181.25 896.66 180.55Q896.66 179.83 897.11 179.41Q897.57 178.99 898.36 178.99Q899.15 178.99 899.61 179.41Q900.06 179.83 900.06 180.55Q900.06 181.25 899.61 181.66Q899.15 182.06 898.36 182.06" fill="white" fill-opacity="0.7"/>
<path d="M909.57 197.64L907.41 197.64L907.41 184.44L909.57 184.44L909.57 186.96L909.59 186.96Q909.76 185.64 910.67 184.92Q911.58 184.20 913.10 184.20Q915.09 184.20 916.26 185.42Q917.44 186.65 917.44 188.76L917.44 197.64L915.28 197.64L915.28 189.14Q915.28 187.63 914.52 186.83Q913.77 186.02 912.47 186.02Q911.13 186.02 910.35 186.86Q909.57 187.70 909.57 189.24" fill="white" fill-opacity="0.7"/>
<path d="M940.74 197.64L936.21 197.64L936.21 180.12L940.74 180.12Q942.45 180.12 943.68 180.77Q944.92 181.42 945.60 182.59Q946.29 183.77 946.29 185.38L946.29 192.36Q946.29 193.97 945.60 195.16Q944.92 196.34 943.68 196.99Q942.45 197.64 940.74 197.64M938.37 182.04L938.37 195.72L940.74 195.72Q942.33 195.72 943.23 194.83Q944.13 193.94 944.13 192.36L944.13 185.38Q944.13 183.82 943.23 182.93Q942.33 182.04 940.74 182.04" fill="white" fill-opacity="0.7"/>
<path d="M961.72 197.64L950.44 197.64L950.44 195.67L955.12 195.67L955.12 186.41L950.92 186.41L950.92 184.44L957.28 184.44L957.28 195.67L961.72 195.67L961.72 197.64M955.96 182.06Q955.17 182.06 954.71 181.66Q954.26 181.25 954.26 180.55Q954.26 179.83 954.71 179.41Q955.17 178.99 955.96 178.99Q956.75 178.99 957.21 179.41Q957.66 179.83 957.66 180.55Q957.66 181.25 957.21 181.66Q956.75 182.06 955.96 182.06" fill="white" fill-opacity="0.7"/>
<path d="M970.36 201.96L966.66 201.96L966.66 199.99L970.38 199.99Q971.51 199.99 972.16 199.36Q972.81 198.72 972.81 197.64L972.81 196.44L972.86 194.28L972.78 194.28Q972.59 195.46 971.66 196.09Q970.72 196.73 969.30 196.73Q967.26 196.73 966.09 195.43Q964.91 194.14 964.91 191.88L964.91 189.10Q964.91 186.84 966.09 185.52Q967.26 184.20 969.30 184.20Q970.72 184.20 971.66 184.87Q972.59 185.54 972.78 186.72L972.83 186.72L972.83 184.44L974.97 184.44L974.97 197.64Q974.97 199.63 973.73 200.80Q972.50 201.96 970.36 201.96M969.95 194.93Q971.30 194.93 972.06 194.09Q972.83 193.25 972.83 191.76L972.83 189.24Q972.83 187.75 972.06 186.91Q971.30 186.07 969.95 186.07Q968.58 186.07 967.83 186.86Q967.07 187.66 967.07 189L967.07 192Q967.07 193.34 967.83 194.14Q968.58 194.93 969.95 194.93" fill="white" fill-opacity="0.7"/>
<path d="M990.52 197.64L979.24 197.64L979.24 195.67L983.92 195.67L983.92 186.41L979.72 186.41L979.72 184.44L986.08 184.44L986.08 195.67L990.52 195.67L990.52 197.64M984.76 182.06Q983.97 182.06 983.51 181.66Q983.06 181.25 983.06 180.55Q983.06 179.83 983.51 179.41Q983.97 178.99 984.76 178.99Q985.55 178.99 986.01 179.41Q986.46 179.83 986.46 180.55Q986.46 181.25 986.01 181.66Q985.55 182.06 984.76 182.06" fill="white" fill-opacity="0.7"/>
<path d="M1004.80 197.64L994.72 197.64L994.72 180.12L996.88 180.12L996.88 195.67L1004.80 195.67" fill="white" fill-opacity="0.7"/>
<path d="M1013.20 197.83Q1010.82 197.83 1009.42 196.44Q1008.02 195.05 1008.02 192.55L1008.02 189.53Q1008.02 187.01 1009.41 185.63Q1010.80 184.25 1013.20 184.25Q1015.60 184.25 1016.99 185.63Q1018.38 187.01 1018.38 189.53L1018.38 192.55Q1018.38 195.05 1016.98 196.44Q1015.58 197.83 1013.20 197.83M1013.20 195.91Q1014.62 195.91 1015.42 195.12Q1016.22 194.33 1016.22 192.79L1016.22 189.29Q1016.22 187.75 1015.42 186.96Q1014.62 186.17 1013.20 186.17Q1011.81 186.17 1010.99 186.96Q1010.18 187.75 1010.18 189.29L1010.18 192.79Q1010.18 194.33 1010.99 195.12Q1011.81 195.91 1013.20 195.91" fill="white" fill-opacity="0.7"/>
<path d="M1027.79 197.88Q1025.39 197.88 1023.95 196.54Q1022.51 195.19 1022.51 192.84L1022.51 189.24Q1022.51 186.89 1023.95 185.54Q1025.39 184.20 1027.79 184.20Q1030.07 184.20 1031.48 185.42Q1032.88 186.65 1032.95 188.76L1030.79 188.76Q1030.72 187.49 1029.93 186.80Q1029.14 186.12 1027.79 186.12Q1026.38 186.12 1025.52 186.92Q1024.67 187.73 1024.67 189.22L1024.67 192.84Q1024.67 194.33 1025.52 195.14Q1026.38 195.96 1027.79 195.96Q1029.14 195.96 1029.93 195.26Q1030.72 194.57 1030.79 193.32L1032.95 193.32Q1032.88 195.43 1031.48 196.66Q1030.07 197.88 1027.79 197.88" fill="white" fill-opacity="0.7"/>
<path d="M1039.29 197.64L1037.13 197.64L1037.13 180.12L1039.29 180.12L1039.29 189.89L1041.81 189.89L1045.50 184.44L1047.98 184.44L1043.73 190.73L1048.22 197.64L1045.70 197.64L1041.86 191.76L1039.29 191.76" fill="white" fill-opacity="0.7"/>
<path d="M1056.40 197.88Q1054.07 197.88 1052.64 196.48Q1051.22 195.07 1051.22 192.60L1051.22 189.48Q1051.22 187.01 1052.64 185.60Q1054.07 184.20 1056.40 184.20Q1057.96 184.20 1059.12 184.82Q1060.29 185.45 1060.94 186.58Q1061.58 187.70 1061.58 189.24L1061.58 191.59L1053.33 191.59L1053.33 192.84Q1053.33 194.30 1054.17 195.16Q1055.01 196.01 1056.40 196.01Q1057.60 196.01 1058.38 195.54Q1059.16 195.07 1059.33 194.28L1061.49 194.28Q1061.27 195.94 1059.88 196.91Q1058.49 197.88 1056.40 197.88M1053.33 189.24L1053.33 189.91L1059.47 189.91L1059.47 189.24Q1059.47 187.68 1058.67 186.83Q1057.86 185.98 1056.40 185.98Q1054.94 185.98 1054.13 186.83Q1053.33 187.68 1053.33 189.24" fill="white" fill-opacity="0.7"/>
<path d="M1068.45 197.64L1066.29 197.64L1066.29 184.44L1068.45 184.44L1068.45 186.96L1068.50 186.96Q1068.66 185.69 1069.58 184.94Q1070.49 184.20 1072.02 184.20Q1074.09 184.20 1075.20 185.44Q1076.32 186.67 1076.32 188.95L1076.32 190.08L1074.16 190.08L1074.16 188.95Q1074.16 186.07 1071.35 186.07Q1069.94 186.07 1069.19 186.89Q1068.45 187.70 1068.45 189.24" fill="white" fill-opacity="0.7"/>
<path d="M1099.72 197.64L1097.56 197.64L1097.56 188.21L1093.72 188.21L1093.72 186.24L1097.56 186.24L1097.56 183.48Q1097.56 181.92 1098.54 181.02Q1099.53 180.12 1101.26 180.12L1105.12 180.12L1105.12 182.09L1101.26 182.09Q1099.72 182.09 1099.72 183.48L1099.72 186.24L1105.12 186.24L1105.12 188.21L1099.72 188.21" fill="white" fill-opacity="0.7"/>
<path d="M1114 197.83Q1111.62 197.83 1110.22 196.44Q1108.82 195.05 1108.82 192.55L1108.82 189.53Q1108.82 187.01 1110.21 185.63Q1111.60 184.25 1114 184.25Q1116.40 184.25 1117.79 185.63Q1119.18 187.01 1119.18 189.53L1119.18 192.55Q1119.18 195.05 1117.78 196.44Q1116.38 197.83 1114 197.83M1114 195.91Q1115.42 195.91 1116.22 195.12Q1117.02 194.33 1117.02 192.79L1117.02 189.29Q1117.02 187.75 1116.22 186.96Q1115.42 186.17 1114 186.17Q1112.61 186.17 1111.79 186.96Q1110.98 187.75 1110.98 189.29L1110.98 192.79Q1110.98 194.33 1111.79 195.12Q1112.61 195.91 1114 195.91" fill="white" fill-opacity="0.7"/>
<path d="M1126.05 197.64L1123.89 197.64L1123.89 184.44L1126.05 184.44L1126.05 186.96L1126.10 186.96Q1126.26 185.69 1127.18 184.94Q1128.09 184.20 1129.62 184.20Q1131.69 184.20 1132.80 185.44Q1133.92 186.67 1133.92 188.95L1133.92 190.08L1131.76 190.08L1131.76 188.95Q1131.76 186.07 1128.95 186.07Q1127.54 186.07 1126.79 186.89Q1126.05 187.70 1126.05 189.24" fill="white" fill-opacity="0.7"/>
<path d="M77.73 229.83L76.67 229.83Q74.46 229.83 73.25 228.84Q72.04 227.84 72.04 226.02L74.20 226.02Q74.20 226.93 74.85 227.44Q75.50 227.96 76.67 227.96L77.73 227.96Q78.93 227.96 79.59 227.43Q80.25 226.90 80.25 225.94Q80.25 224.24 78.69 224.02L75.04 223.50Q73.70 223.30 72.95 222.38Q72.21 221.46 72.21 219.94Q72.21 218.22 73.40 217.23Q74.58 216.25 76.67 216.25L77.73 216.25Q79.65 216.25 80.86 217.20Q82.07 218.14 82.17 219.68L79.98 219.68Q79.94 218.98 79.32 218.53Q78.71 218.07 77.73 218.07L76.67 218.07Q75.57 218.07 74.94 218.58Q74.32 219.08 74.32 219.94Q74.32 221.34 75.59 221.53L79 222.01Q82.36 222.49 82.36 225.94Q82.36 227.79 81.15 228.81Q79.94 229.83 77.73 229.83" fill="white" fill-opacity="0.7"/>
<path d="M96.76 229.64L92.92 229.64Q91.29 229.64 90.30 228.69Q89.32 227.74 89.32 226.16L89.32 218.41L85.53 218.41L85.53 216.44L89.32 216.44L89.32 212.72L91.48 212.72L91.48 216.44L96.88 216.44L96.88 218.41L91.48 218.41L91.48 226.16Q91.48 226.83 91.88 227.25Q92.27 227.67 92.92 227.67L96.76 227.67" fill="white" fill-opacity="0.7"/>
<path d="M105.98 229.88Q103.70 229.88 102.33 228.52Q100.96 227.17 100.96 224.84L100.96 216.44L103.12 216.44L103.12 224.84Q103.12 226.28 103.89 227.13Q104.66 227.98 105.98 227.98Q107.32 227.98 108.10 227.13Q108.88 226.28 108.88 224.84L108.88 216.44L111.04 216.44L111.04 224.84Q111.04 227.17 109.65 228.52Q108.26 229.88 105.98 229.88" fill="white" fill-opacity="0.7"/>
<path d="M119.63 229.88Q117.66 229.88 116.48 228.56Q115.29 227.24 115.29 224.98L115.29 221.12Q115.29 218.84 116.46 217.52Q117.64 216.20 119.63 216.20Q121.12 216.20 122.09 216.94Q123.06 217.69 123.26 218.96L123.28 218.96L123.23 215.96L123.23 212.12L125.39 212.12L125.39 229.64L123.23 229.64L123.23 227.12L123.21 227.12Q123.04 228.42 122.08 229.15Q121.12 229.88 119.63 229.88M120.35 228.01Q121.70 228.01 122.46 227.17Q123.23 226.33 123.23 224.84L123.23 221.24Q123.23 219.75 122.46 218.91Q121.70 218.07 120.35 218.07Q118.98 218.07 118.22 218.78Q117.45 219.49 117.45 221.12L117.45 224.96Q117.45 226.57 118.22 227.29Q118.98 228.01 120.35 228.01" fill="white" fill-opacity="0.7"/>
<path d="M134.80 229.88Q132.47 229.88 131.04 228.48Q129.62 227.07 129.62 224.60L129.62 221.48Q129.62 219.01 131.04 217.60Q132.47 216.20 134.80 216.20Q136.36 216.20 137.52 216.82Q138.69 217.45 139.34 218.58Q139.98 219.70 139.98 221.24L139.98 223.59L131.73 223.59L131.73 224.84Q131.73 226.30 132.57 227.16Q133.41 228.01 134.80 228.01QNaN 228.01 136.78 227.54Q137.56 227.07 137.73 226.28L139.89 226.28Q139.67 227.94 138.28 228.91Q136.89 229.88 134.80 229.88M131.73 221.24L131.73 221.91L137.87 221.91L137.87 221.24Q137.87 219.68 137.07 218.83Q136.26 217.98 134.80 217.98Q133.34 217.98 132.53 218.83Q131.73 219.68 131.73 221.24" fill="white" fill-opacity="0.7"/>
<path d="M146.37 229.64L144.21 229.64L144.21 216.44L146.37 216.44L146.37 218.96L146.39 218.96Q146.56 217.64 147.47 216.92Q148.38 216.20 149.90 216.20Q151.89 216.20 153.06 217.42Q154.24 218.65 154.24 220.76L154.24 229.64L152.08 229.64L152.08 221.14Q152.08 219.63 151.32 218.83Q150.57 218.02 149.27 218.02Q147.93 218.02 147.15 218.86Q146.37 219.70 146.37 221.24" fill="white" fill-opacity="0.7"/>
<path d="M168.76 229.64L164.92 229.64Q163.29 229.64 162.30 228.69Q161.32 227.74 161.32 226.16L161.32 218.41L157.53 218.41L157.53 216.44L161.32 216.44L161.32 212.72L163.48 212.72L163.48 216.44L168.88 216.44L168.88 218.41L163.48 218.41L163.48 226.16Q163.48 226.83 163.88 227.25Q164.27 227.67 164.92 227.67L168.76 227.67" fill="white" fill-opacity="0.7"/>
<path d="M190.05 229.64L187.89 229.64L187.89 216.44L190.05 216.44L190.05 218.96L190.10 218.96Q190.26 217.69 191.18 216.94Q192.09 216.20 193.62 216.20Q195.69 216.20 196.80 217.44Q197.92 218.67 197.92 220.95L197.92 222.08L195.76 222.08L195.76 220.95Q195.76 218.07 192.95 218.07Q191.54 218.07 190.79 218.89Q190.05 219.70 190.05 221.24" fill="white" fill-opacity="0.7"/>
<path d="M206.80 229.88Q204.47 229.88 203.04 228.48Q201.62 227.07 201.62 224.60L201.62 221.48Q201.62 219.01 203.04 217.60Q204.47 216.20 206.80 216.20Q208.36 216.20 209.52 216.82Q210.69 217.45 211.34 218.58Q211.98 219.70 211.98 221.24L211.98 223.59L203.73 223.59L203.73 224.84Q203.73 226.30 204.57 227.16Q205.41 228.01 206.80 228.01QNaN 228.01 208.78 227.54Q209.56 227.07 209.73 226.28L211.89 226.28Q211.67 227.94 210.28 228.91Q208.89 229.88 206.80 229.88M203.73 221.24L203.73 221.91L209.87 221.91L209.87 221.24Q209.87 219.68 209.07 218.83Q208.26 217.98 206.80 217.98Q205.34 217.98 204.53 218.83Q203.73 219.68 203.73 221.24" fill="white" fill-opacity="0.7"/>
<path d="M226.36 229.64L222.52 229.64Q220.89 229.64 219.90 228.69Q218.92 227.74 218.92 226.16L218.92 218.41L215.13 218.41L215.13 216.44L218.92 216.44L218.92 212.72L221.08 212.72L221.08 216.44L226.48 216.44L226.48 218.41L221.08 218.41L221.08 226.16Q221.08 226.83 221.48 227.25Q221.87 227.67 222.52 227.67L226.36 227.67" fill="white" fill-opacity="0.7"/>
<path d="M233.25 229.64L231.09 229.64L231.09 216.44L233.25 216.44L233.25 218.96L233.30 218.96Q233.46 217.69 234.38 216.94Q235.29 216.20 236.82 216.20Q238.89 216.20 240 217.44Q241.12 218.67 241.12 220.95L241.12 222.08L238.96 222.08L238.96 220.95Q238.96 218.07 236.15 218.07Q234.74 218.07 233.99 218.89Q233.25 219.70 233.25 221.24" fill="white" fill-opacity="0.7"/>
<path d="M256.12 229.64L244.84 229.64L244.84 227.67L249.52 227.67L249.52 218.41L245.32 218.41L245.32 216.44L251.68 216.44L251.68 227.67L256.12 227.67L256.12 229.64M250.36 214.06Q249.57 214.06 249.11 213.66Q248.66 213.25 248.66 212.55Q248.66 211.83 249.11 211.41Q249.57 210.99 250.36 210.99Q251.15 210.99 251.61 211.41Q252.06 211.83 252.06 212.55Q252.06 213.25 251.61 213.66Q251.15 214.06 250.36 214.06" fill="white" fill-opacity="0.7"/>
<path d="M264.40 229.88Q262.07 229.88 260.64 228.48Q259.22 227.07 259.22 224.60L259.22 221.48Q259.22 219.01 260.64 217.60Q262.07 216.20 264.40 216.20Q265.96 216.20 267.12 216.82Q268.29 217.45 268.94 218.58Q269.58 219.70 269.58 221.24L269.58 223.59L261.33 223.59L261.33 224.84Q261.33 226.30 262.17 227.16Q263.01 228.01 264.40 228.01Q265.60 228.01 266.38 227.54Q267.16 227.07 267.33 226.28L269.49 226.28Q269.27 227.94 267.88 228.91Q266.49 229.88 264.40 229.88M261.33 221.24L261.33 221.91L267.47 221.91L267.47 221.24Q267.47 219.68 266.67 218.83Q265.86 217.98 264.40 217.98Q262.94 217.98 262.13 218.83Q261.33 219.68 261.33 221.24" fill="white" fill-opacity="0.7"/>
<path d="M280.22 229.64L277.38 229.64L272.90 216.44L275.22 216.44L278.10 225.32Q278.37 226.11 278.56 226.84Q278.75 227.58 278.85 227.98Q278.97 227.58 279.14 226.84Q279.30 226.11 279.54 225.32L282.42 216.44L284.70 216.44" fill="white" fill-opacity="0.7"/>
<path d="M292.05 229.88Q290.01 229.88 288.81 228.74Q287.61 227.60 287.61 225.75Q287.61 224.53 288.16 223.62Q288.71 222.70 289.70 222.19Q290.68 221.67 291.95 221.67L296.03 221.67L296.03 220.64Q296.03 218.07 293.22 218.07Q291.98 218.07 291.21 218.53Q290.44 218.98 290.39 219.80L288.23 219.80Q288.35 218.24 289.68 217.22Q291.02 216.20 293.22 216.20Q295.62 216.20 296.91 217.35Q298.19 218.50 298.19 220.57L298.19 229.64L296.06 229.64L296.06 227.24L296.01 227.24Q295.82 228.46 294.78 229.17Q293.75 229.88 292.05 229.88M292.58 228.06Q294.16 228.06 295.10 227.29Q296.03 226.52 296.03 225.20L296.03 223.35L292.19 223.35Q291.14 223.35 290.48 223.99Q289.82 224.62 289.82 225.68Q289.82 226.78 290.55 227.42Q291.28 228.06 292.58 228.06" fill="white" fill-opacity="0.7"/>
<path d="M313.60 229.64L309.52 229.64Q307.77 229.64 306.72 228.62Q305.68 227.60 305.68 225.92L305.68 214.09L301.12 214.09L301.12 212.12L307.84 212.12L307.84 225.92Q307.84 226.74 308.30 227.20Q308.75 227.67 309.52 227.67L313.60 227.67" fill="white" fill-opacity="0.7"/>
<path d="M322 229.88Q321.11 229.88 320.57 229.35Q320.03 228.82 320.03 227.98Q320.03 227.10 320.57 226.54Q321.11 225.99 322 225.99Q322.89 225.99 323.43 226.54Q323.97 227.10 323.97 227.98Q323.97 228.82 323.43 229.35Q322.89 229.88 322 229.88" fill="white" fill-opacity="0.7"/>
<path d="M76.11 136.06L66.42 136.06L84.56 65.98L97.14 65.98L115.18 136.06L105.49 136.06L101.07 117.82L80.53 117.82L76.11 136.06M87.54 88.92L82.45 109.95L99.15 109.95L94.16 89.02Q92.72 83.26 91.86 79.23Q90.99 75.20 90.80 73.76Q90.61 75.20 89.74 79.23Q88.88 83.26 87.54 88.92M137.55 136.06L128.05 136.06L128.05 65.98L150.80 65.98Q157.52 65.98 162.42 68.57Q167.31 71.16 170 75.82Q172.69 80.48 172.69 86.91Q172.69 93.24 170 97.90Q167.31 102.56 162.37 105.15Q157.42 107.74 150.80 107.74L137.55 107.74L137.55 136.06M137.55 74.43L137.55 99.29L150.80 99.29Q156.37 99.29 159.63 95.88Q162.90 92.48 162.90 86.91Q162.90 81.24 159.63 77.84Q156.37 74.43 150.80 74.43L137.55 74.43M225.10 136.06L186.90 136.06L186.90 127.42L201.20 127.42L201.20 74.62L186.90 74.62L186.90 65.98L225.10 65.98L225.10 74.62L210.80 74.62L210.80 127.42L225.10 127.42L225.10 136.06M263.98 137.02Q253.62 137.02 247.47 131.60Q241.33 126.17 241.33 116.67L250.83 116.67Q250.83 122.24 254.38 125.40Q257.94 128.57 263.98 128.57Q269.74 128.57 273.15 125.36Q276.56 122.14 276.56 116.76Q276.56 112.73 274.35 109.71Q272.14 106.68 268.11 105.63L257.74 102.84Q250.93 100.92 246.94 95.88Q242.96 90.84 242.96 83.93Q242.96 78.27 245.50 74Q248.05 69.72 252.66 67.37Q257.26 65.02 263.31 65.02Q269.46 65.02 274.11 67.37Q278.77 69.72 281.36 73.95Q283.95 78.17 283.95 83.74L274.54 83.74Q274.54 79.13 271.42 76.25Q268.30 73.37 263.31 73.37Q258.32 73.37 255.30 76.25Q252.27 79.13 252.27 83.74Q252.27 87.48 254.29 90.03Q256.30 92.57 259.95 93.63L270.61 96.51Q277.81 98.43 281.84 103.85Q285.87 109.28 285.87 116.76Q285.87 122.91 283.18 127.47Q280.50 132.03 275.55 134.52Q270.61 137.02 263.98 137.02M342.51 136.06L301.71 136.06L301.71 65.98L342.51 65.98L342.51 74.52L311.12 74.52L311.12 95.36L339.15 95.36L339.15 103.61L311.12 103.61L311.12 127.52L342.51 127.52L342.51 136.06M383.60 136.06L374.10 136.06L374.10 74.62L355.09 74.62L355.09 65.98L402.51 65.98L402.51 74.62L383.60 74.62L383.60 136.06M436.40 137.02Q426.51 137.02 421.18 131.55Q415.86 126.08 415.86 116.67L415.86 65.98L425.36 65.98L425.36 116.67Q425.36 122.24 428.10 125.40Q430.83 128.57 436.40 128.57Q441.87 128.57 444.70 125.40Q447.54 122.24 447.54 116.67L447.54 65.98L457.04 65.98L457.04 116.67Q457.04 126.17 451.71 131.60Q446.38 137.02 436.40 137.02M551.98 137.02Q542.29 137.02 536.58 131.60Q530.86 126.17 530.86 116.67L530.86 85.28Q530.86 75.87 536.58 70.44Q542.29 65.02 551.98 65.02Q561.58 65.02 567.30 70.49Q573.01 75.96 573.01 85.28L563.50 85.28Q563.50 79.61 560.43 76.54Q557.36 73.47 551.98 73.47Q546.51 73.47 543.44 76.54Q540.37 79.61 540.37 85.28L540.37 116.67Q540.37 122.43 543.44 125.50Q546.51 128.57 551.98 128.57Q557.36 128.57 560.43 125.50Q563.50 122.43 563.50 116.67L563.50 107.55L549.87 107.55L549.87 99.10L573.01 99.10L573.01 116.67Q573.01 126.08 567.30 131.55Q561.58 137.02 551.98 137.02M609.20 137.02Q599.60 137.02 594.03 131.45Q588.46 125.88 588.46 115.71L588.46 86.24Q588.46 76.16 594.03 70.59Q599.60 65.02 609.20 65.02Q618.80 65.02 624.37 70.54Q629.94 76.06 629.94 86.24L629.94 115.71Q629.94 125.88 624.37 131.45Q618.80 137.02 609.20 137.02M609.20 128.57Q614.58 128.57 617.50 125.50Q620.43 122.43 620.43 116.67L620.43 85.28Q620.43 79.61 617.55 76.54Q614.67 73.47 609.20 73.47Q603.73 73.47 600.85 76.54Q597.97 79.61 597.97 85.28L597.97 116.67Q597.97 122.43 600.90 125.50Q603.82 128.57 609.20 128.57M673.14 136.06L660.37 136.06L642.42 65.98L652.21 65.98L663.82 113.21Q664.98 117.72 665.79 121.90Q666.61 126.08 666.99 128.28Q667.28 126.08 668.19 121.85Q669.10 117.63 670.16 113.12L681.39 65.98L691.18 65.98L673.14 136.06M768.75 136.06L759.73 136.06L759.73 65.98L773.17 65.98L781.81 96.22L790.83 65.98L804.37 65.98L804.37 136.06L795.25 136.06L795.25 103.90Q795.25 98.81 795.44 92.62Q795.63 86.43 795.97 80.24Q796.30 74.04 796.69 69.05L785.74 104.96L777.68 104.96L767.12 69.92Q767.98 76.92 768.37 85.52Q768.75 94.11 768.75 103.90L768.75 136.06M840.94 136.06L819.34 136.06L819.34 65.98L839.60 65.98Q849.30 65.98 854.91 70.83Q860.53 75.68 860.53 84.12Q860.53 89.60 857.12 93.87Q853.71 98.14 848.34 99.10L848.34 99.39Q852.37 99.87 855.49 102.27Q858.61 104.67 860.38 108.36Q862.16 112.06 862.16 116.48Q862.16 125.50 856.45 130.78Q850.74 136.06 840.94 136.06M828.66 74.33L828.66 95.55L839.50 95.55Q844.88 95.55 847.95 92.72Q851.02 89.88 851.02 84.99Q851.02 80 847.95 77.16Q844.88 74.33 839.60 74.33L828.66 74.33M828.66 103.61L828.66 127.71L840.08 127.71Q845.94 127.71 849.30 124.59Q852.66 121.47 852.66 116.09Q852.66 110.52 849.30 107.07Q845.94 103.61 840.08 103.61L828.66 103.61M897.58 137.02Q887.22 137.02 881.07 131.60Q874.93 126.17 874.93 116.67L884.43 116.67Q884.43 122.24 887.98 125.40Q891.54 128.57 897.58 128.57Q903.34 128.57 906.75 125.36Q910.16 122.14 910.16 116.76Q910.16 112.73 907.95 109.71Q905.74 106.68 901.71 105.63L891.34 102.84Q884.53 100.92 880.54 95.88Q876.56 90.84 876.56 83.93Q876.56 78.27 879.10 74Q881.65 69.72 886.26 67.37Q890.86 65.02 896.91 65.02Q903.06 65.02 907.71 67.37Q912.37 69.72 914.96 73.95Q917.55 78.17 917.55 83.74L908.14 83.74Q908.14 79.13 905.02 76.25Q901.90 73.37 896.91 73.37Q891.92 73.37 888.90 76.25Q885.87 79.13 885.87 83.74Q885.87 87.48 887.89 90.03Q889.90 92.57 893.55 93.63L904.21 96.51Q911.41 98.43 915.44 103.85Q919.47 109.28 919.47 116.76Q919.47 122.91 916.78 127.47Q914.10 132.03 909.15 134.52Q904.21 137.02 897.58 137.02M976.11 136.06L935.31 136.06L935.31 65.98L976.11 65.98L976.11 74.52L944.72 74.52L944.72 95.36L972.75 95.36L972.75 103.61L944.72 103.61L944.72 127.52L976.11 127.52" fill="url(#paint2_linear_0_1)"/>
<g id="Group 1">
<rect id="Rectangle 1" x="26" y="168" width="12" height="184" rx="5" fill="url(#paint3_linear_0_1)" fill-opacity="0.9"/>
</g>
<g id="Group 1_2">
<rect id="Rectangle 2" x="26" y="38" width="12" height="119" rx="5" fill="url(#paint4_linear_0_1)" fill-opacity="0.9"/>
</g>
<ellipse id="Ellipse 1" cx="148.5" cy="573" rx="215.5" ry="214" fill="url(#paint5_linear_0_1)" fill-opacity="0.4"/>
<rect id="Rectangle 3" x="1229" y="48" width="300" height="300" rx="25" fill="#FFFBFB" fill-opacity="0.9"/>
<g id="placeholder-logo"><g transform="translate(1229,48) translate(0.0,60.0) scale(1.2000)"><g fill="#666666">
  <path d="m88.05,27.65c-3.15,4 -3.2,51.2 -0.05,54.35c2.75,2.75 71.7,3.15 74.45,0.45c2.85,-2.9 2.3,-53.85 -0.65,-55.9c-1.95,-1.35 -7.15,-1.55 -36.95,-1.55l-34.7,0l-2.1,2.65zm69.45,3.35c0.65,0 1,8.6 1,23.75l0,23.75l-33,0l-33,0l-0.25,-23c-0.15,-12.6 -0.1,-23.45 0.15,-24.1c0.35,-0.85 8.9,-1.05 32.25,-0.75c17.55,0.2 32.3,0.35 32.85,0.35z"/>
  <path d="m99.15,37.3c-6.85,7.35 4.25,17.35 11.4,10.25c1.35,-1.35 2.45,-3.65 2.45,-5.05c0,-6.45 -9.35,-9.95 -13.85,-5.2z"/>
  <path d="m135,42.5c-0.7,0.85 -5.25,5.15 -10.1,9.6l-8.85,8.1l-3.2,-3.2l-3.15,-3.15l-6.35,6.3c-5.55,5.5 -6.35,6.75 -6.35,10.05l0,3.8l28.5,0l28.5,0l0,-8.6l0,-8.55l-8.15,-7.7c-9.35,-8.85 -9.15,-8.7 -10.85,-6.65zm7.25,15.2c0.95,0.9 1.75,2.9 1.75,4.45c6.35,-5.05 4.75,-7.15 4.9,-11.55c0.95,0 0,0 0,0l-6.65,7.1z"/>
  <path d="m53.65,110.75c0.1,4.8 0.45,8.65 0.75,8.5c0.35,-0.15 1.3,-0.25 2.1,-0.25c1.1,0 1.5,-1.2 1.5,-4.75l0,-4.75l3.25,5c4.9,7.5 6.2,6.75 6.55,-3.75c0.25,-8.15 0.15,-8.75 -1.7,-8.75c-1.65,0 -2.05,0.8 -2.3,4.75l-0.3,4.75l-2.8,-4.75c-4.85,-8.25 -7.25,-6.9 -7.05,4z"/>
  <path d="m91,108.9c0,9.65 0.3,10.1 6.1,10.1c5.8,0 7.15,-2.65 1.65,-3.2l-3.25,-0.3l-0.3,-6.75c-0.25,-5.95 -0.55,-6.75 -2.25,-6.75c-1.75,0 -1.95,0.7 -1.95,6.9z"/>
  <path d="m151,102.45c0,0.25 1,2.15 2.25,4.2c1.2,2.1 2.45,5.8 2.75,8.25c0.65,5.9 4,6.95 4,1.25c0.05,-2.1 1.25,-5.85 2.95,-8.9l2.9,-5.25l-2.5,0c-1.8,0 -2.8,0.85 -3.75,3.1l-1.3,3.05l-1.25,-3.05c-1.1,-2.6 -6.05,-4.8 -6.05,-2.65z"/>
  <path d="m191,107.45c0,9.05 3.4,8.85 4.25,-0.2c0.45,-5 0.35,-5.25 -1.9,-5.25c-2.2,0 -2.35,0.4 -2.35,5.45z"/>
  <path d="m180.8,104.75c-1.3,5.35 0.65,13.6 3.45,14.35c2.3,0.6 2.75,0.4 2.75,-1.2c0,-1.05 -0.45,-1.9 -1,-1.9c-0.55,0 -1,-1.6 -1,-3.5c0,-1.95 0.45,-3.5 1,-3.5c0.55,0 1,-0.7 1,-1.5c0,-0.85 -0.45,-1.5 -1,-1.5c-0.55,0 -1,-0.7 -1,-1.5c0,-2.1 -3.65,-1.9 -4.2,0.25z"/>
  <path d="m71.55,106.55c-2.2,2.25 -2.05,9.7 0.3,11.8c4.5,4.1 10.15,0.75 10.15,-6.1c0,-4.85 -2,-7.25 -6,-7.25c-1.55,0 -3.55,0.7 -4.45,1.55zm6.25,5.8c0.25,3.05 0,3.65 -1.6,3.65c-2.3,0 -3.25,-2.65 -2.05,-5.85c1.25,-3.35 3.3,-2.1 3.65,2.2z"/>
  <path d="m105.75,106.1c-2.5,1.45 -2.45,9.95 0.1,12.25c4.3,3.9 10.15,0.35 10.15,-6.2c0,-6 -5.15,-9.05 -10.25,-6.05zm6.05,6.25c0.25,3.05 0,3.65 -1.6,3.65c-2.3,0 -3.25,-2.65 -2.05,-5.85c1.25,-3.35 3.3,-2.1 3.65,2.2z"/>
  <path d="m119.2,106.2c-3.8,3.8 -0.4,12.55 4.4,11.35c1.9,-0.45 2.45,-0.3 2.15,0.65c-0.25,0.7 -1.55,1.2 -2.85,1.1c-4.05,-0.3 -5.35,0.45 -3.85,2.25c0.85,1.05 2.6,1.45 5.35,1.25l4.1,-0.3l0.3,-8.75l0.3,-8.75l-4.35,0c-2.4,0 -4.9,0.55 -5.55,1.2zm6.6,4.45c0.4,2.85 -2.15,4.85 -3.75,2.95c-0.9,-1.1 -0.9,-2 -0.05,-3.6c1.35,-2.5 3.4,-2.15 3.8,0.65z"/>
  <path d="m133.55,106.55c-2.2,2.25 -2.05,9.7 0.3,11.8c4.5,4.1 10.15,0.75 10.15,-6.1c0,-4.85 -2,-7.25 -6,-7.25c-1.55,0 -3.55,0.7 -4.45,1.55zm6.25,5.8c0.25,3.05 0,3.65 -1.6,3.65c-2.3,0 -3.25,-2.65 -2.05,-5.85c1.25,-3.35 3.3,-2.1 3.65,2.2z"/>
  <path d="m167.65,106.85c-3.9,4.3 -0.75,13.15 4.7,13.15c2.4,0 5.65,-2.75 5.65,-4.85c0,-1.4 -2.65,-1.55 -3.5,-0.15c-0.95,1.55 -4.5,1.15 -4.5,-0.5c0,-1.1 1.1,-1.5 4,-1.5c3.15,0 4,-0.35 4,-1.8c0,-5.3 -6.85,-8.25 -10.35,-4.35z"/>
  <path d="m191,117.5c0,2.15 0.4,2.6 2.25,2.3c1.5,-0.2 2.25,-1 2.25,-2.3c0,-1.3 -0.75,-2.1 -2.25,-2.3c-1.85,-0.3 -2.25,0.15 -2.25,2.3z"/>
 </g></g></g>
</g>
<defs>
<linearGradient id="paint0_linear_0_1" x1="0" y1="198" x2="1584" y2="198" gradientUnits="userSpaceOnUse">
<stop stop-color="#3D052C"/>
<stop offset="1"/>
</linearGradient>
<linearGradient id="paint1_linear_0_1" x1="323" y1="-224" x2="323" y2="352" gradientUnits="userSpaceOnUse">
<stop stop-color="#28F6F2" stop-opacity="0.4"/>
<stop offset="1" stop-color="#17908E" stop-opacity="0.7"/>
</linearGradient>
<linearGradient id="paint2_linear_0_1" x1="148.5" y1="38" x2="148.5" y2="140" gradientUnits="userSpaceOnUse">
<stop stop-color="white"/>
<stop offset="1" stop-color="#999999"/>
</linearGradient>
<linearGradient id="paint3_linear_0_1" x1="38" y1="260" x2="26" y2="260" gradientUnits="userSpaceOnUse">
<stop stop-color="#D9D9D9"/>
<stop offset="1" stop-color="#737373"/>
</linearGradient>
<linearGradient id="paint4_linear_0_1" x1="38" y1="97.5" x2="26" y2="97.5" gradientUnits="userSpaceOnUse">
<stop stop-color="#D9D9D9"/>
<stop offset="1" stop-color="#737373"/>
</linearGradient>
<linearGradient id="paint5_linear_0_1" x1="27.5" y1="434.5" x2="148.5" y2="787" gradientUnits="userSpaceOnUse">
<stop stop-color="#2E21BC"/>
<stop offset="1" stop-color="#150F56"/>
</linearGradient>
<clipPath id="clip0_0_1">
<rect width="1584" height="396" fill="white"/>
</clipPath>
</defs>
</svg>
